<svg xmlns="http://www.w3.org/2000/svg" xmlns:xlink="http://www.w3.org/1999/xlink" data-name="Layer 2" viewBox="0 0 1000 1000" width="550" height="550"><link xmlns="" type="text/css" rel="stylesheet" id="dark-mode-custom-link"/><link xmlns="" type="text/css" rel="stylesheet" id="dark-mode-general-link"/><style xmlns="" lang="en" type="text/css" id="dark-mode-custom-style"/><style xmlns="" lang="en" type="text/css" id="dark-mode-native-style"/><style xmlns="" lang="en" type="text/css" id="dark-mode-native-sheet"/><defs><linearGradient id="a" x1="9.85" x2="148.75" y1="259.93" y2="1205.63" gradientUnits="userSpaceOnUse"><stop offset="0" stop-color="#d6cccc" stop-opacity=".1" class="stopColorccd2d6 svgShape"/><stop offset="1" stop-color="#d6cccc" stop-opacity=".25" class="stopColorccd2d6 svgShape"/></linearGradient><linearGradient id="d" x1="164.64" x2="303.53" y1="237.2" y2="1182.9" xlink:href="#a"/><linearGradient id="e" x1="860.9" x2="999.79" y1="134.94" y2="1080.64" xlink:href="#a"/><linearGradient id="f" x1="674.23" x2="813.13" y1="162.36" y2="1108.06" xlink:href="#a"/><linearGradient id="g" x1="911.09" x2="1049.98" y1="127.57" y2="1073.27" xlink:href="#a"/><linearGradient id="h" x1="508.45" x2="647.34" y1="186.7" y2="1132.41" xlink:href="#a"/><linearGradient id="i" x1="846.67" x2="985.56" y1="137.03" y2="1082.73" xlink:href="#a"/><linearGradient id="j" x1="790.02" x2="928.91" y1="145.35" y2="1091.05" xlink:href="#a"/><linearGradient id="k" x1="28.35" x2="167.25" y1="257.22" y2="1202.92" xlink:href="#a"/><linearGradient id="l" x1="448.02" x2="607.34" y1="445.5" y2="915.29" gradientUnits="userSpaceOnUse"><stop offset="0" stop-color="#d6cccc" stop-opacity=".25" class="stopColorccd2d6 svgShape"/><stop offset="1" stop-color="#d6cccc" stop-opacity=".5" class="stopColorccd2d6 svgShape"/></linearGradient><linearGradient id="b" x1="427.78" x2="519.7" y1="363.94" y2="565.13" gradientUnits="userSpaceOnUse"><stop offset="0" stop-color="#d6cccc" stop-opacity=".4" class="stopColorccd2d6 svgShape"/><stop offset="1" stop-color="#d6cccc" stop-opacity=".8" class="stopColorccd2d6 svgShape"/></linearGradient><linearGradient id="m" x1="536.44" x2="592.61" y1="529.72" y2="691.08" xlink:href="#b"/><linearGradient id="c" x1="262.28" x2="321.71" y1="684.43" y2="684.43" gradientUnits="userSpaceOnUse"><stop offset="0" stop-color="#d6cccc" stop-opacity=".7" class="stopColorccd2d6 svgShape"/><stop offset="1" stop-color="#d6cccc" class="stopColorccd2d6 svgShape"/></linearGradient><linearGradient id="n" x1="922.23" x2="776.19" y1="457.71" y2="542.47" xlink:href="#b"/><linearGradient id="o" x1="493.88" x2="514.31" y1="457.13" y2="632.79" xlink:href="#c"/><linearGradient id="p" x1="412.55" x2="440.13" y1="587.24" y2="713.88" xlink:href="#c"/><linearGradient id="q" x1="464.2" x2="491.77" y1="575.99" y2="702.63" xlink:href="#c"/><linearGradient id="r" x1="662.52" x2="724.82" y1="501.57" y2="658.84" xlink:href="#c"/><linearGradient id="s" x1="592.51" x2="700.77" y1="741.12" y2="1028.1" xlink:href="#b"/><linearGradient id="t" x1="500.77" x2="612.09" y1="648.83" y2="648.83" xlink:href="#c"/><linearGradient id="u" x1="157.6" x2="248.49" y1="148.38" y2="257.15" xlink:href="#b"/><linearGradient id="v" x1="296.66" x2="196.07" y1="309.68" y2="201.43" xlink:href="#c"/><linearGradient id="w" x1="731.98" x2="731.98" y1="136.06" y2="344.4" gradientUnits="userSpaceOnUse"><stop offset="0" stop-color="#d6cccc" stop-opacity=".3" class="stopColorccd2d6 svgShape"/><stop offset="1" stop-color="#d6cccc" stop-opacity=".7" class="stopColorccd2d6 svgShape"/></linearGradient><linearGradient id="x" x1="731.98" x2="731.98" y1="192.57" y2="263.38" xlink:href="#c"/></defs><path fill="url(#a)" d="m0,496.84c0-25.39,12.38-48.36,32.4-64.99,12.4-10.32,27.73-18.18,44.85-22.67-11.48,38.17-17.65,78.63-17.65,120.55,0,16.9,1.01,33.55,2.96,49.93C25.55,564.8,0,533.31,0,496.84Z"/><path fill="url(#e)" d="m960.8,567.02c-18.86,13.29-43.15,21.4-69.7,21.72,1.21-8.52,2.16-17.13,2.84-25.81,20.93,7.65,44.1,9.41,66.86,4.09Z"/><path fill="url(#g)" d="m1000,496.84c0,22.68-9.88,43.45-26.28,59.46.05-1.29-.17-2.62-.67-3.9l-29.27-75.21c5.31-5.96,8.55-13.84,8.55-22.46,0-17.49-13.32-31.9-30.38-33.59l-5.22-13.41c47.86,10.11,83.27,46.17,83.27,89.1Z"/><path fill="url(#i)" d="m909.64,308.52c0,15.93-6.19,30.4-16.3,41.15-2.89-3.06-7.57-4.08-11.58-2.08-7.87,3.92-15.13,8.64-21.72,14-7.62-17.3-16.36-33.98-26.16-49.95h19.2c13.16,0,23.82-10.67,23.82-23.82v-32.81c19.43,9.95,32.74,30.18,32.74,53.51Z"/><path fill="url(#j)" d="m909.64,684.43c0,33.18-26.9,60.08-60.08,60.08-4.41,0-8.72-.48-12.85-1.38,20.03-33.63,35.46-70.32,45.44-109.2,16.54,10.7,27.5,29.32,27.5,50.5Z"/><path fill="url(#k)" d="m112.1,732.63c-20.78-9.45-35.22-30.39-35.22-54.7,0-6.65,1.09-13.05,3.07-19.02,8.37,25.76,19.17,50.43,32.15,73.72Z"/><g><path fill="url(#l)" d="m732.73,410.22l-96.4,32.57-31.69,10.7-15.13-28.81-1.91-3.61-25.93-49.39-1.9-3.62-25.95-49.39-1.88-3.62-6.19-11.78c-6.82-12.99-22.3-19.46-34.57-14.46l-11.16,4.54-3.42,1.38-29.7,12.09-17.02,6.91-3.4,1.38-46.74,19-3.42,1.38-18.75,7.64-27.97,11.36-3.42,1.38-11.16,4.54c-12.27,4.99-16.7,19.57-9.89,32.55l6.19,11.8,1.91,3.61,25.92,49.39,1.91,3.61,25.93,49.4,1.89,3.61,8.37,15.95-20.19,6.82-48.01,16.22c-24.8,8.37-38.12,35.28-29.74,60.09l5.58,16.51c-13.81,11.24-22.63,28.38-22.63,47.58,0,33.25,26.43,60.31,59.44,61.33l3.15,9.35c8.37,24.81,35.28,38.12,60.09,29.75l62.1-20.99,19.38,50.38,1.58,4.07,21.46,55.8,1.55,4.08,21.47,55.8,1.57,4.07,5.12,13.33c.13.32.25.63.38.94-13.85,1.39-27.9,2.1-42.12,2.1-230.76,0-417.83-187.07-417.83-417.82,0-115.11,46.53-219.34,121.84-294.9,6.25-.99,12.25-2.79,17.86-5.28l54.89,76.49c5.69,7.93,14.55,12.03,23.47,12.03,7.29,0,14.61-2.74,20.29-8.36,11.68-11.56,11.34-30.55-.73-41.69l-68.06-62.87c3.94-5.55,7.13-11.71,9.39-18.28,67.69-47.25,150.05-74.97,238.88-74.97,41.74,0,82.06,6.12,120.11,17.53-6.33,4.28-10.49,11.53-10.49,19.75v138.64c0,13.15,10.66,23.82,23.82,23.82h38.59v22.46c0,10.33,12.2,15.81,19.92,8.96l35.4-31.42h129.09c9.8,15.97,18.54,32.65,26.16,49.95-27.93,22.73-43.88,57.29-43.24,93.16l-16.59,7.03-7.37-21.81c-8.37-24.81-35.29-38.12-60.1-29.74Z"/><path fill="#1e1c1c" d="m893.95,562.92c-7.94,101.13-51.9,192.14-119.05,260.2l-20.43-53.11-1.57-4.09-21.46-55.79-1.57-4.08-15.19-39.49,55.05-18.6,38.9-13.14c24.8-8.37,38.11-35.28,29.74-60.09l-12.09-35.79,20.46-7.91c12.98,14.47,29.27,25.35,47.19,31.89Z" opacity=".5" class="colorccd2d6 svgShape"/><path fill="url(#b)" d="m604.64,453.5l-34.41,11.63-3.53,1.19-48.15,16.26-3.52,1.19-48.16,16.28-3.52,1.18-48.16,16.28-3.52,1.19-34.42,11.63-8.38-15.96-1.89-3.6-25.93-49.41-1.9-3.6-25.93-49.39-1.9-3.6-6.19-11.8c-6.82-12.99-2.38-27.56,9.9-32.55l11.15-4.53,3.42-1.39,27.96-11.36,18.76-7.64,3.42-1.39,46.73-19,3.41-1.39,17.02-6.91,29.71-12.08,3.41-1.39,11.16-4.53c12.28-4.99,27.76,1.47,34.57,14.46l6.19,11.79,1.89,3.62,25.94,49.4,1.89,3.62,25.94,49.38,1.9,3.62,15.13,28.82Z"/><path fill="#1e1c1c" d="m589.51,424.68l-1.9-3.62-33.39,13.58-25.93-49.39,33.38-13.57-1.89-3.62-33.38,13.58-25.95-49.39,33.39-13.58-1.89-3.62-33.39,13.58-18.54-35.29-3.41,1.39,18.53,35.3-41.22,16.76s-.02.01-.04.02l-5.45,2.22-18.54-35.3-3.41,1.39,18.53,35.29-36.42,14.81-10.3,4.19-18.54-35.3-3.42,1.39,18.54,35.29-6.7,2.73c-.05.02-.11.05-.16.05l-39.86,16.21-18.54-35.29-3.42,1.39,18.54,35.3-33.39,13.58,1.9,3.6,33.38-13.58,25.94,49.39-33.39,13.58,1.9,3.6,33.39-13.58,25.93,49.41-33.39,13.58,1.89,3.6,33.4-13.58,9.39,17.9,3.52-1.19-9.5-18.1,46.73-19,10.93,20.82,3.52-1.18-11.04-21.03,46.73-19,12.47,23.75,3.52-1.19-12.57-23.94,46.72-19,14,26.67,3.53-1.19-14.11-26.88,33.39-13.57Zm-92.48-91.04l25.93,49.39-46.72,19-25.94-49.39,46.73-19Zm-50.14,20.38l25.93,49.39-46.72,19-25.94-49.4,46.73-19Zm-96.87,39.38l46.73-18.98,25.93,49.38-46.72,19-25.94-49.39Zm53.76,102.39l-25.93-49.38,46.73-19,25.93,49.38-46.73,19Zm50.15-20.37l-25.94-49.41,46.73-18.98,25.93,49.38-46.72,19.01Zm50.14-20.39l-25.94-49.39,46.73-19,25.94,49.41-46.73,18.98Z" opacity=".75" class="colorccd2d6 svgShape"/><path fill="url(#m)" d="m808.63,634.82l-38.9,13.14-35.37-105.42c-3.16-9.42-13.52-14.32-22.81-10.78l-61.19,23.31c-8.68,3.31-13.27,12.83-10.42,21.69,3.57,11.12,8.68,26.98,14.12,43.96l-2.42.93-4.07,1.57-35.48,13.64-20.32,7.81-4.07,1.56-55.8,21.46-4.07,1.56-22.4,8.62-33.39,12.83-4.07,1.57-13.33,5.12c-14.66,5.64-21.98,22.1-16.34,36.76l5.12,13.33,1.57,4.07,2.09,5.42-62.12,20.98c-24.81,8.38-51.71-4.94-60.09-29.74l-3.16-9.35-36.8-108.9-5.58-16.52c-8.38-24.81,4.94-51.71,29.74-60.09l48.01-16.22c.34,1.07.8,2.12,1.35,3.15l18.3,33.86c4.75,8.79,15.19,12.8,24.6,9.46l228.12-81.08c9.26-3.29,14.82-12.76,13.18-22.46l-6.3-37.28,96.41-32.57c24.81-8.39,51.72,4.93,60.1,29.73l7.37,21.81,26.07,77.17,12.09,35.8c8.38,24.81-4.94,51.71-29.74,60.09Z"/><path fill="url(#c)" d="m321.71,738.88c-33.01-1.02-59.43-28.08-59.43-61.32,0-19.2,8.82-36.34,22.63-47.58l36.8,108.9Z"/><path fill="url(#n)" d="m966.58,565.52c-43.99,12.67-90.41-1.67-119.83-34.48-9.16-10.22-16.68-22.24-21.96-35.8-5.19-13.32-7.77-26.99-8.01-40.49-.79-44.33,23.76-86.64,64.96-107.16,5.2-2.59,11.51-.12,13.62,5.3l26.58,68.27,21.82,56.05,29.27,75.21c2.11,5.42-.88,11.5-6.47,13.11Z"/><path fill="#1e1c1c" d="m846.76,531.03l-20.47,7.91-26.07-77.17,16.58-7.02c.24,13.5,2.82,27.18,8.01,40.49,5.28,13.56,12.79,25.57,21.96,35.8Z" class="colorccd2d6 svgShape"/><path fill="#1e1c1c" d="m952.33,454.74c0,8.62-3.23,16.49-8.55,22.46l-21.82-56.05c17.05,1.69,30.38,16.09,30.38,33.59Z" opacity=".75" class="colorccd2d6 svgShape"/><path fill="url(#o)" d="m629.45,502.53l-228.12,81.08c-9.41,3.34-19.85-.67-24.6-9.46l-18.3-33.86c-.56-1.03-1.02-2.08-1.35-3.15l279.25-94.35,6.3,37.28c1.64,9.7-3.92,19.17-13.18,22.46Z"/><circle cx="422.08" cy="630.98" r="15.34" fill="url(#p)"/><circle cx="472.83" cy="615.64" r="15.34" fill="url(#q)"/><path fill="url(#r)" d="m769.74,647.96l-55.05,18.6-6.27-16.3-1.56-4.09-5.12-13.32c-5.64-14.67-22.1-21.98-36.76-16.34l-10.9,4.19c-5.44-16.97-10.55-32.84-14.12-43.96-2.85-8.86,1.74-18.38,10.42-21.69l61.19-23.31c9.28-3.54,19.65,1.37,22.81,10.78l35.37,105.42Z"/><g><path fill="url(#s)" d="m766.27,879.95l-13.33,5.12-4.07,1.57-55.78,21.45-4.09,1.56h0s-55.78,21.45-55.78,21.45l-4.09,1.57-55.8,21.45h0s-4.07,1.57-4.07,1.57l-13.33,5.12c-14.66,5.65-31.11-1.67-36.76-16.33l-5.12-13.33-1.56-4.07-21.46-55.8-1.56-4.07-21.45-55.8-1.57-4.07-21.45-55.8-1.57-4.07-5.12-13.33c-5.64-14.66,1.68-31.12,16.34-36.76l13.33-5.12,4.07-1.57,33.39-12.83,22.4-8.62,4.07-1.56,55.8-21.46,4.07-1.56,20.32-7.81,35.48-13.64,4.07-1.57,13.33-5.12c14.66-5.64,31.12,1.67,36.76,16.34l5.12,13.32,1.56,4.09,21.46,55.78,1.56,4.09,21.46,55.78,1.56,4.09,21.45,55.78,1.57,4.09,5.12,13.32c5.64,14.67-1.68,31.12-16.34,36.76Z"/><path fill="#1e1c1c" d="m777.49,829.88l-1.57-4.09-39.87,15.34-21.45-55.8,39.87-15.33-1.56-4.09-39.88,15.34-21.45-55.8,39.87-15.33-1.56-4.09-39.87,15.34-21.46-55.8,39.87-15.33-1.56-4.09-39.87,15.34-15.34-39.87-4.07,1.57,15.33,39.87-49.22,18.93s-.03.01-.05.02l-6.51,2.5-15.34-39.87-4.07,1.56,15.33,39.87-43.49,16.73-12.3,4.73-15.34-39.87-4.07,1.56,15.33,39.87-8,3.08c-.07.02-.13.05-.2.07l-47.59,18.31-15.34-39.87-4.07,1.57,15.33,39.87-39.87,15.34,1.57,4.07,39.87-15.34,21.45,55.8-39.87,15.34,1.57,4.07,39.87-15.34,21.45,55.8-39.87,15.34,1.56,4.07,39.88-15.34,21.45,55.8-39.87,15.34,1.56,4.07,39.87-15.34,15.34,39.87,4.07-1.56h0s-15.33-39.87-15.33-39.87l55.78-21.45,15.34,39.86h0s4.09-1.56,4.09-1.56h0s-15.34-39.87-15.34-39.87l55.78-21.45,15.34,39.86h0s4.09-1.56,4.09-1.56l-15.34-39.87,55.78-21.45,15.34,39.87,4.07-1.57-15.33-39.87,39.87-15.33Zm-68.54-47.05l-55.8,21.45-21.45-55.8,55.8-21.45,21.45,55.8Zm-59.87,23.02l-55.8,21.46-21.45-55.8,55.8-21.45,21.45,55.78Zm15.39-138.68l21.45,55.8-55.78,21.45-21.46-55.8,55.8-21.45Zm-59.87,23.03l21.45,55.78-55.78,21.46-21.46-55.8,55.8-21.45Zm-115.67,44.48l55.8-21.45,21.45,55.78-55.78,21.45-21.46-55.78Zm23.03,59.87l55.8-21.45,21.45,55.78-55.8,21.45-21.45-55.78Zm44.48,115.65l-21.45-55.78,55.8-21.45,21.45,55.78-55.8,21.45Zm59.87-23.02l-21.45-55.8,55.8-21.45,21.45,55.78-55.8,21.46Zm59.87-23.03l-21.45-55.8,55.8-21.45,21.45,55.8-55.8,21.45Z" opacity=".5" class="colorccd2d6 svgShape"/></g><path fill="url(#t)" d="m612.09,636.87l-20.32,7.81-4.07,1.56-55.8,21.46-4.07,1.56-22.4,8.62-3.43-7.6c-3.27-7.24.25-15.74,7.68-18.56l81.79-31.03c7.26-2.76,15.38,1.03,17.93,8.38l2.7,7.8Z"/><path fill="#1e1c1c" d="m230.92,700.17c-.16,0-.31-.01-.47-.04-9.08-1.43-16.62-2.74-23.75-4.12-1.63-.31-2.69-1.89-2.38-3.51s1.89-2.69,3.51-2.38c7.06,1.37,14.54,2.66,23.54,4.08,1.64.26,2.75,1.79,2.5,3.43-.23,1.48-1.51,2.53-2.96,2.53Zm-47.07-9.32c-.25,0-.5-.03-.75-.1-8.35-2.15-15.95-4.44-23.22-7.01-1.56-.55-2.38-2.27-1.83-3.83.55-1.56,2.26-2.38,3.83-1.83,7.11,2.51,14.54,4.76,22.72,6.86,1.6.41,2.57,2.05,2.16,3.65-.35,1.35-1.57,2.25-2.9,2.25Zm-45.1-16.21c-.45,0-.9-.1-1.33-.31-7.53-3.72-14.61-7.89-21.04-12.4-1.36-.95-1.69-2.82-.74-4.18.95-1.36,2.82-1.69,4.18-.74,6.19,4.33,13.01,8.34,20.26,11.93,1.48.73,2.09,2.53,1.36,4.02-.52,1.06-1.59,1.67-2.69,1.67Zm-39.03-27.54c-.77,0-1.54-.29-2.12-.88-5.7-5.7-11.02-11.97-15.81-18.66-.97-1.35-.66-3.22.69-4.19,1.35-.97,3.22-.66,4.19.69,4.61,6.42,9.71,12.45,15.18,17.92,1.17,1.17,1.17,3.07,0,4.24-.59.59-1.35.88-2.12.88Zm-27.92-38.79c-1.09,0-2.15-.6-2.68-1.65-3.65-7.2-6.81-14.79-9.4-22.53-.53-1.57.32-3.27,1.89-3.8,1.57-.53,3.27.32,3.8,1.89,2.5,7.47,5.55,14.78,9.07,21.72.75,1.48.16,3.28-1.32,4.03-.43.22-.9.32-1.35.32Zm-15.21-45.36c-1.42,0-2.68-1.02-2.95-2.46-1.46-8.02-2.35-16.19-2.64-24.27-.06-1.66,1.24-3.05,2.89-3.11,1.69-.04,3.05,1.24,3.11,2.89.28,7.79,1.13,15.67,2.54,23.41.3,1.63-.78,3.19-2.41,3.49-.18.03-.36.05-.54.05Zm-1.6-47.8c-.12,0-.25,0-.37-.02-1.64-.21-2.81-1.7-2.61-3.35,1.03-8.28,2.78-16.35,5.21-23.97.5-1.58,2.19-2.45,3.77-1.95,1.58.5,2.45,2.19,1.95,3.77-2.31,7.27-3.99,14.97-4.97,22.89-.19,1.52-1.48,2.63-2.97,2.63Zm94.79-4.07c-1.48,0-2.77-1.09-2.97-2.6-.22-1.64.93-3.15,2.57-3.37.71-.09,1.41-.21,2.11-.34,6.44-1.25,12.63-4.28,17.9-8.77,1.26-1.07,3.16-.92,4.23.34,1.07,1.26.92,3.15-.34,4.23-6.05,5.15-13.19,8.64-20.65,10.09-.8.16-1.63.29-2.45.4-.14.02-.27.03-.4.03Zm-23.44-3.47c-.4,0-.81-.08-1.21-.25-8.04-3.53-14.85-9.04-19.69-15.92-.95-1.36-.63-3.23.73-4.18,1.36-.95,3.23-.63,4.18.73,4.21,5.98,10.15,10.78,17.2,13.88,1.52.67,2.21,2.44,1.54,3.95-.49,1.12-1.59,1.79-2.75,1.79Zm58.24-25.97c-.3,0-.61-.05-.91-.14-1.58-.5-2.45-2.19-1.95-3.77.46-1.46.83-2.95,1.1-4.43.38-2.06.56-4.19.56-6.33,0-3.7-.56-7.44-1.65-11.1-.48-1.59.42-3.26,2.01-3.74,1.59-.48,3.26.42,3.74,2.01,1.27,4.22,1.91,8.53,1.91,12.82,0,2.5-.22,5-.66,7.41-.31,1.74-.75,3.48-1.29,5.18-.41,1.28-1.59,2.09-2.86,2.09Zm-85.39-11.08c-1.43,0-2.7-1.03-2.95-2.48-.63-3.62-1.02-7.46-1.16-11.42-.05-1.35-.07-2.72-.07-4.06,0-3.12.13-6.21.4-9.2.14-1.65,1.59-2.88,3.25-2.73,1.65.15,2.87,1.6,2.73,3.25-.25,2.82-.37,5.74-.37,8.68,0,1.27.02,2.57.07,3.85.13,3.69.49,7.25,1.08,10.6.29,1.63-.81,3.19-2.44,3.47-.17.03-.35.04-.52.04Zm-29.48-.77c-.51,0-1.03-.13-1.5-.41-1.43-.83-1.92-2.67-1.09-4.1,4.28-7.37,9.34-13.97,15.05-19.61,1.18-1.16,3.08-1.15,4.24.02s1.15,3.08-.03,4.24c-5.33,5.26-10.06,11.44-14.08,18.35-.56.96-1.56,1.49-2.6,1.49Zm102.11-31.72c-.69,0-1.39-.24-1.96-.73-1.78-1.53-3.7-2.88-5.71-4-4.23-2.36-9.1-3.98-14.48-4.82-1.64-.25-2.76-1.79-2.5-3.43.25-1.64,1.79-2.76,3.43-2.5,6.09.95,11.63,2.8,16.49,5.51,2.36,1.32,4.61,2.9,6.7,4.69,1.26,1.08,1.4,2.98.32,4.23-.59.69-1.43,1.04-2.27,1.04Zm-68.22-1.32c-1.09,0-2.14-.59-2.67-1.63-.76-1.47-.18-3.28,1.3-4.04,7.25-3.73,15.16-6.37,23.5-7.86,1.63-.29,3.19.79,3.48,2.43.29,1.63-.79,3.19-2.43,3.48-7.75,1.38-15.09,3.84-21.81,7.29-.44.23-.91.33-1.37.33Zm-.02-13.42c-.35,0-.7-.06-1.05-.19-1.55-.58-2.34-2.31-1.76-3.86,2.83-7.58,6.79-14.89,11.76-21.73.97-1.34,2.85-1.63,4.19-.66,1.34.97,1.64,2.85.66,4.19-4.65,6.39-8.35,13.22-10.99,20.3-.45,1.21-1.59,1.95-2.81,1.95Zm27.53-38.68c-.82,0-1.64-.34-2.23-1-1.11-1.23-1-3.13.23-4.24,5.64-5.05,11.96-9.92,19.33-14.89,1.37-.93,3.24-.56,4.16.81.93,1.37.56,3.24-.81,4.16-7.14,4.81-13.25,9.51-18.67,14.38-.57.51-1.29.77-2,.77Zm39.47-27.15c-1.05,0-2.06-.55-2.62-1.53-.81-1.44-.3-3.27,1.14-4.09,7.3-4.12,14.83-8.08,21.23-11.42,1.47-.77,3.28-.19,4.05,1.27.77,1.47.2,3.28-1.27,4.05-6.36,3.32-13.84,7.25-21.06,11.33-.47.26-.97.39-1.47.39Zm42.43-22.49c-1.07,0-2.11-.58-2.65-1.59-.78-1.46-.22-3.28,1.24-4.06,1.56-.83,3.11-1.66,4.66-2.5,1.46-.79,3.28-.25,4.07,1.21.79,1.46.25,3.28-1.21,4.07-1.55.84-3.12,1.68-4.7,2.52-.45.24-.93.35-1.41.35Z" class="colorccd2d6 svgShape"/><g><path fill="url(#u)" d="m170.02,90.8c-40.01,0-72.45,32.45-72.45,72.47s32.44,72.46,72.45,72.46c10.41,0,20.33-2.2,29.27-6.17,12.03-5.3,22.33-13.79,29.87-24.4,8.4-11.83,13.32-26.28,13.32-41.89,0-40.02-32.45-72.47-72.47-72.47Zm0,120.12c-26.32,0-47.65-21.33-47.65-47.65s21.33-47.65,47.65-47.65,47.66,21.33,47.66,47.65-21.34,47.65-47.66,47.65Z"/><path fill="#1e1c1c" d="m217.68,163.26c0,26.32-21.34,47.65-47.66,47.65s-47.65-21.33-47.65-47.65,21.33-47.65,47.65-47.65,47.66,21.33,47.66,47.65Z" opacity=".25" class="colorccd2d6 svgShape"/><path fill="url(#v)" d="m297.95,309.7c-5.68,5.62-13,8.36-20.29,8.36-8.91,0-17.77-4.1-23.46-12.03l-54.9-76.48c12.03-5.31,22.34-13.79,29.87-24.4l68.05,62.86c12.08,11.15,12.41,30.13.74,41.69Z"/></g><g><path fill="url(#w)" d="m853.08,125.35h-242.2c-13.16,0-23.83,10.67-23.83,23.83v138.63c0,13.16,10.67,23.83,23.83,23.83h38.58v22.45c0,10.33,12.2,15.82,19.93,8.96l35.4-31.41h148.28c13.16,0,23.83-10.67,23.83-23.83v-138.63c0-13.16-10.67-23.83-23.83-23.83Z"/><path fill="url(#x)" d="m772.72,226.18c0,15.79-3.55,27.97-10.64,36.53-7.09,8.56-17.09,12.85-29.99,12.85-13.01,0-23.07-4.31-30.19-12.93-7.12-8.62-10.68-20.77-10.68-36.45v-21.36c0-15.79,3.55-27.97,10.64-36.53,7.09-8.56,17.11-12.85,30.07-12.85s22.99,4.31,30.11,12.93c7.12,8.62,10.68,20.79,10.68,36.53v21.28Zm-27.06-24.81c0-8.4-1.1-14.68-3.29-18.83-2.2-4.15-5.67-6.22-10.44-6.22s-8.04,1.93-10.16,5.78c-2.12,3.85-3.25,9.69-3.41,17.5v29.87c0,8.73,1.1,15.11,3.29,19.15,2.19,4.04,5.67,6.06,10.44,6.06,4.6,0,8-1.97,10.2-5.9,2.19-3.93,3.32-10.1,3.37-18.51v-28.9Z"/></g><circle cx="367.1" cy="208.33" r="17.06" fill="#1e1c1c" opacity=".25" class="colorccd2d6 svgShape"/><circle cx="777.49" cy="710.73" r="17.06" fill="#1e1c1c" opacity=".25" class="colorccd2d6 svgShape"/><circle cx="472.83" cy="225.39" r="31.2" fill="#1e1c1c" opacity=".25" class="colorccd2d6 svgShape"/><circle cx="386.36" cy="832.96" r="31.2" fill="#1e1c1c" opacity=".25" class="colorccd2d6 svgShape"/><circle cx="188.69" cy="588.74" r="20.59" fill="#1e1c1c" opacity=".25" class="colorccd2d6 svgShape"/></g></svg>